<?xml version="1.0" standalone="no"?>
<!DOCTYPE svg PUBLIC "-//W3C//DTD SVG 20010904//EN"
 "http://www.w3.org/TR/2001/REC-SVG-20010904/DTD/svg10.dtd">
<svg version="1.0" xmlns="http://www.w3.org/2000/svg"
 width="390.000000pt" height="390.000000pt" viewBox="0 0 390.000000 390.000000"
 preserveAspectRatio="xMidYMid meet">
<metadata>
Created by potrace 1.14, written by Peter Selinger 2001-2017
</metadata>
<g transform="translate(0.000000,390.000000) scale(0.100000,-0.100000)"
fill="#000000" stroke="none">
<path d="M991 2771 c-505 -253 -929 -470 -940 -482 -12 -13 -21 -33 -21 -45 0
-61 12 -69 332 -230 l308 -154 0 -297 c0 -200 4 -309 12 -336 6 -21 31 -60 54
-86 l42 -46 7 26 c4 15 22 42 41 60 l34 33 0 269 c0 173 4 275 11 289 13 25
1042 538 1079 538 14 0 31 -5 38 -12 20 -20 14 -72 -10 -95 -13 -12 -240 -129
-505 -262 -264 -132 -483 -246 -486 -253 -3 -7 -2 -116 1 -242 l5 -229 34 -30
c49 -43 66 -82 60 -135 -6 -51 -29 -87 -78 -120 -28 -20 -44 -23 -91 -20 -47
4 -54 2 -40 -9 9 -7 38 -15 65 -19 l47 -7 0 -107 c0 -129 -11 -152 -75 -152
-36 0 -38 -1 -20 -14 27 -20 69 -17 96 5 23 18 24 26 27 164 l3 145 132 -63
c270 -129 516 -186 807 -186 412 0 805 139 1120 395 91 74 106 90 130 141 18
37 20 65 20 347 l0 308 310 155 c182 91 313 163 320 174 13 25 13 67 -1 92 -6
12 -360 195 -940 484 -754 377 -937 465 -969 465 -32 0 -213 -87 -959 -459z"/>
</g>
</svg>
